# xmcd
#
# Track frame offsets: 
#        150
#        18092
#        34004
#        51894
#        67148
#        83959
#        99466
#        116751
#        130343
#        141722
#        162510
#        178246
#        196263
#        213296
#
# Disc length: 3059 seconds
#
# Revision: 6
# Processed by: cddbd v1.5.2PL0 Copyright (c) Steve Scherf et al.
# Submitted via: ExactAudioCopy v0.99pb4
#
DISCID=d10bf10e
DTITLE=Rosenfels - Handbuch der allgemeinen Chemie
DYEAR=2002
DGENRE=Rock
TTITLE0=Love Song
TTITLE1=Believe Me
TTITLE2=Storm
TTITLE3=Waiting For The Daylight
TTITLE4=See It In Your Eyes
TTITLE5=Snowflake
TTITLE6=Awaken
TTITLE7=Anytime
TTITLE8=Elephant Waltz
TTITLE9=The Storm Of Rosanna
TTITLE10=Fly With The Wind
TTITLE11=Strange Things On The Floor
TTITLE12=White Roses
TTITLE13=Black cat
EXTD=YEAR: 2002
EXTT0=
EXTT1=
EXTT2=
EXTT3=
EXTT4=
EXTT5=
EXTT6=
EXTT7=
EXTT8=
EXTT9=
EXTT10=
EXTT11=
EXTT12=
EXTT13=
PLAYORDER=
